<?xml version="1.0" standalone="no"?>
<!DOCTYPE svg PUBLIC "-//W3C//DTD SVG 20010904//EN"
 "http://www.w3.org/TR/2001/REC-SVG-20010904/DTD/svg10.dtd">
<svg version="1.0" xmlns="http://www.w3.org/2000/svg"
 width="1024.000000pt" height="1024.000000pt" viewBox="175 250 670 470"
 preserveAspectRatio="xMidYMid meet">

<g transform="translate(0.000000,1024.000000) scale(0.100000,-0.100000)"
fill="#ffffff" stroke="none">
<path d="M5116 7571 c-5 -8 -53 -316 -111 -721 -26 -182 -76 -495 -101 -635
-46 -258 -130 -395 -305 -494 -126 -71 -213 -89 -918 -191 -228 -33 -421 -60
-428 -60 -7 0 -13 -4 -13 -9 0 -11 -7 -10 604 -136 279 -58 550 -119 601 -136
102 -32 220 -102 272 -162 78 -90 142 -234 177 -400 7 -37 16 -71 19 -73 6 -6
63 17 262 108 222 101 215 96 234 153 43 130 139 249 255 316 83 47 219 87
457 133 123 25 245 47 271 51 33 5 81 29 169 84 67 42 123 80 123 85 1 6 -87
25 -194 43 -347 59 -643 114 -690 130 -110 36 -194 87 -270 163 -118 118 -152
204 -205 524 -33 201 -151 968 -176 1144 -11 78 -21 103 -33 83z m64 -1826
c28 -110 56 -205 63 -212 10 -10 252 -78 382 -108 41 -9 32 -12 -192 -75
l-191 -53 -41 -171 c-23 -94 -46 -196 -53 -226 -6 -30 -14 -58 -18 -63 -3 -4
-30 91 -59 210 -29 120 -58 226 -65 237 -8 13 -66 33 -205 71 -106 30 -195 56
-198 59 -7 7 -10 6 192 56 218 53 204 49 214 68 5 10 30 98 55 197 53 205 57
218 61 213 2 -2 26 -93 55 -203z"/>
<path d="M7536 6920 c-190 -22 -545 -98 -757 -164 -76 -23 -86 -29 -82 -46 7
-25 4 -26 161 10 194 44 456 80 623 87 304 12 487 -47 535 -172 69 -182 -163
-488 -686 -906 -147 -117 -541 -378 -845 -560 -510 -304 -1275 -674 -1915
-925 -91 -36 -200 -79 -242 -96 l-77 -30 24 -42 c13 -22 31 -69 41 -102 l17
-62 121 43 c297 105 647 246 911 365 249 112 666 316 813 397 385 211 548 306
772 448 452 288 788 550 1050 821 302 312 417 564 332 731 -44 86 -148 155
-283 189 -76 19 -392 27 -513 14z"/>
<path d="M6342 6770 c-91 -55 -96 -197 -10 -250 51 -31 137 -28 178 6 112 95
55 264 -90 264 -27 0 -58 -8 -78 -20z"/>
<path d="M6025 6501 c-224 -85 -485 -204 -485 -221 0 -14 -4 -14 96 26 49 20
172 67 274 105 102 39 197 75 213 81 27 11 39 48 15 48 -7 0 -58 -18 -113 -39z"/>
<path d="M3535 5202 c-210 -118 -542 -335 -743 -486 -608 -459 -877 -860 -713
-1066 66 -83 177 -130 356 -151 249 -28 713 45 1233 193 49 14 48 10 14 113
-12 33 -23 72 -26 87 -6 25 -8 26 -39 17 -70 -21 -299 -72 -427 -94 -487 -87
-774 -38 -819 140 -54 216 331 621 1129 1187 67 48 110 88 94 88 -5 0 -31 -13
-59 -28z"/>
<path d="M5200 4161 c-47 -21 -120 -53 -162 -71 -43 -18 -78 -35 -78 -39 1
-33 150 -974 155 -979 12 -12 22 19 34 106 7 48 42 278 77 512 36 234 67 444
71 468 3 23 2 42 -3 41 -5 0 -47 -17 -94 -38z"/>
<path d="M3920 4109 c-79 -32 -129 -107 -130 -193 0 -132 124 -231 247 -197
103 27 159 105 151 212 -5 75 -44 134 -108 167 -47 23 -116 28 -160 11z"/>
</g>
</svg>
